<?xml version="1.0" encoding="UTF-8" standalone="no"?> <!-- Created with Vectornator for iOS (http://vectornator.io/) --><!DOCTYPE svg PUBLIC "-//W3C//DTD SVG 1.1//EN" "http://www.w3.org/Graphics/SVG/1.1/DTD/svg11.dtd">
<svg height="100%" style="fill-rule:evenodd;clip-rule:evenodd;stroke-linecap:round;stroke-linejoin:round;" xmlns:xlink="http://www.w3.org/1999/xlink" xmlns="http://www.w3.org/2000/svg" xml:space="preserve" width="100%" xmlns:vectornator="http://vectornator.io" version="1.1" viewBox="0 0 1024 1024">
<metadata>
<vectornator:setting key="DisplayWhiteBackground" value="0"/>
<vectornator:setting key="RulersVisible" value="1"/>
<vectornator:setting key="GridSpacing" value="36"/>
<vectornator:setting key="Units" value="Pixels"/>
<vectornator:setting key="DynamicGuides" value="0"/>
<vectornator:setting key="SnapToPoints" value="0"/>
<vectornator:setting key="SnapToGrid" value="0"/>
<vectornator:setting key="SnapToGuides" value="1"/>
<vectornator:setting key="SnapToEdges" value="0"/>
</metadata>
<defs/>
<g id="Layer 1" vectornator:layerName="Layer 1">
<path stroke="#616161" vectornator:shadowColor="#000000" vectornator:shadowOffset="9.50227" stroke-width="1" fill="#aebba7" stroke-linecap="butt" vectornator:shadowAngle="1.17074" stroke-linejoin="round" opacity="1" vectornator:shadowRadius="2.60208" d="M486.895+465.933L561.755+465.933C588.223+465.933+609.68+486.644+609.68+512.192L609.68+585.679C609.68+611.228+588.223+631.938+561.755+631.938L486.895+631.938C460.427+631.938+438.971+611.228+438.971+585.679L438.971+512.192C438.971+486.644+460.427+465.933+486.895+465.933Z" vectornator:shadowOpacity="0.333"/>
<path stroke="#616161" vectornator:shadowColor="#000000" vectornator:shadowOffset="9.50227" stroke-width="1" fill="#aebba7" stroke-linecap="butt" vectornator:shadowAngle="1.17074" stroke-linejoin="round" opacity="1" vectornator:shadowRadius="2.60208" d="M683.11+466.192L757.97+466.192C784.438+466.192+805.895+486.903+805.895+512.451L805.895+585.938C805.895+611.486+784.438+632.197+757.97+632.197L683.11+632.197C656.642+632.197+635.185+611.486+635.185+585.938L635.185+512.451C635.185+486.903+656.642+466.192+683.11+466.192Z" vectornator:shadowOpacity="0.333"/>
<path stroke="#616161" vectornator:shadowColor="#000000" vectornator:shadowOffset="9.50227" stroke-width="1" fill="#aebba7" stroke-linecap="butt" vectornator:shadowAngle="1.17074" stroke-linejoin="round" opacity="1" vectornator:shadowRadius="2.60208" d="M286.152+474.621L361.011+474.621C387.48+474.621+408.936+495.332+408.936+520.88L408.936+594.368C408.936+619.916+387.48+640.627+361.011+640.627L286.152+640.627C259.684+640.627+238.227+619.916+238.227+594.368L238.227+520.88C238.227+495.332+259.684+474.621+286.152+474.621Z" vectornator:shadowOpacity="0.333"/>
<path stroke="#616161" vectornator:shadowColor="#000000" vectornator:shadowOffset="9.50227" stroke-width="1" fill="#aebba7" stroke-linecap="butt" vectornator:shadowAngle="1.17074" stroke-linejoin="round" opacity="1" vectornator:shadowRadius="2.60208" d="M481.778+277.566L556.638+277.566C583.106+277.566+604.563+298.277+604.563+323.825L604.563+397.312C604.563+410.891+598.502+423.103+588.849+431.565C580.34+439.025+569.039+443.571+556.638+443.571L481.778+443.571C455.31+443.571+433.854+422.861+433.854+397.312L433.854+323.825C433.854+298.277+455.31+277.566+481.778+277.566Z" vectornator:shadowOpacity="0.333"/>
<g opacity="1">
<path vectornator:shadowColor="#000000" vectornator:shadowOpacity="0" vectornator:shadowRadius="2.60208" d="M507.854+554.994C508.028+558.087+508.757+560.598+510.044+562.527C512.493+566.139+516.81+567.945+522.995+567.945C525.766+567.945+528.289+567.55+530.565+566.758C534.969+565.224+537.171+562.478+537.171+558.52C537.171+555.551+536.243+553.436+534.388+552.174C532.507+550.937+529.563+549.861+525.556+548.945L518.171+547.275C513.347+546.187+509.933+544.987+507.929+543.676C504.465+541.4+502.733+537.998+502.733+533.471C502.733+528.572+504.428+524.552+507.817+521.41C511.207+518.268+516.006+516.697+522.216+516.697C527.931+516.697+532.786+518.077+536.781+520.835C540.777+523.594+542.774+528.003+542.774+534.065L535.835+534.065C535.464+531.145+534.672+528.906+533.46+527.348C531.209+524.503+527.386+523.08+521.993+523.08C517.639+523.08+514.509+523.996+512.604+525.826C510.699+527.657+509.747+529.785+509.747+532.209C509.747+534.881+510.86+536.835+513.087+538.072C514.546+538.864+517.849+539.854+522.995+541.041L530.64+542.785C534.326+543.626+537.171+544.777+539.175+546.236C542.638+548.785+544.37+552.483+544.37+557.332C544.37+563.369+542.174+567.686+537.783+570.283C533.392+572.881+528.289+574.18+522.475+574.18C515.697+574.18+510.39+572.448+506.556+568.984C502.721+565.546+500.841+560.882+500.915+554.994L507.854+554.994Z" vectornator:shadowOffset="9.50227" fill="#3d3d3d" opacity="1" vectornator:shadowAngle="1.17074"/>
</g>
<g opacity="1">
<path vectornator:shadowColor="#000000" vectornator:shadowOpacity="0" vectornator:shadowRadius="2.60208" d="M351.138+572.436L347.427+576.926L339.003+570.506C336.974+571.619+334.779+572.51+332.416+573.178C330.053+573.846+327.474+574.18+324.679+574.18C316.218+574.18+309.588+571.409+304.788+565.867C300.558+560.474+298.442+553.72+298.442+545.606C298.442+538.233+300.273+531.925+303.935+526.68C308.635+519.951+315.587+516.586+324.79+516.586C334.414+516.586+341.539+519.678+346.165+525.863C349.777+530.688+351.583+536.86+351.583+544.381C351.583+547.894+351.15+551.271+350.284+554.512C348.973+559.46+346.759+563.492+343.642+566.609L351.138+572.436ZM325.569+567.574C327.103+567.574+328.538+567.469+329.874+567.259C331.21+567.049+332.373+566.634+333.362+566.016L327.388+561.34L331.099+556.775L338.224+562.305C340.475+559.732+342.003+556.85+342.807+553.658C343.611+550.467+344.013+547.412+344.013+544.492C344.013+538.085+342.337+532.927+338.984+529.018C335.632+525.109+331.049+523.154+325.235+523.154C319.347+523.154+314.684+525.028+311.245+528.776C307.806+532.525+306.087+538.295+306.087+546.088C306.087+552.644+307.738+557.864+311.041+561.748C314.344+565.632+319.187+567.574+325.569+567.574Z" vectornator:shadowOffset="9.50227" fill="#3d3d3d" opacity="1" vectornator:shadowAngle="1.17074"/>
</g>
<g opacity="1">
<path vectornator:shadowColor="#000000" vectornator:shadowOpacity="0" vectornator:shadowRadius="2.60208" d="M725.44+564.186C727.938+564.186+729.992+563.926+731.6+563.407C734.469+562.442+736.82+560.587+738.65+557.84C740.11+555.639+741.162+552.818+741.805+549.379C742.176+547.326+742.361+545.421+742.361+543.665C742.361+536.911+741.019+531.666+738.335+527.93C735.651+524.195+731.328+522.327+725.365+522.327L712.266+522.327L712.266+564.186L725.44+564.186ZM704.844+515.981L726.924+515.981C734.42+515.981+740.234+518.641+744.365+523.96C748.051+528.759+749.895+534.907+749.895+542.403C749.895+548.192+748.806+553.424+746.629+558.1C742.794+566.363+736.201+570.495+726.85+570.495L704.844+570.495L704.844+515.981Z" vectornator:shadowOffset="9.50227" fill="#3d3d3d" opacity="1" vectornator:shadowAngle="1.17074"/>
</g>
<g opacity="1">
<path vectornator:shadowColor="#000000" vectornator:shadowOpacity="0" vectornator:shadowRadius="2.60208" d="M498.507+378.941L531.943+337.044L500.957+337.044L500.957+330.55L541.443+330.55L541.443+336.896L507.822+378.57L541.443+378.57L541.443+385.064L498.507+385.064L498.507+378.941Z" vectornator:shadowOffset="9.50227" fill="#3d3d3d" opacity="1" vectornator:shadowAngle="1.17074"/>
</g>
<path d="M523.611+664.44C480.143+664.44+444.777+700.397+444.777+744.591C444.777+788.786+480.143+824.743+523.611+824.743C567.078+824.743+602.444+788.786+602.444+744.591C602.444+700.397+567.078+664.44+523.611+664.44ZM523.611+676.771C560.517+676.771+590.316+707.068+590.316+744.591C590.316+782.114+560.517+812.412+523.611+812.412C486.705+812.412+456.905+782.114+456.905+744.591C456.905+707.068+486.705+676.771+523.611+676.771ZM491.585+724.746L482.867+733.609L519.252+770.602L523.611+774.841L527.969+770.602L564.354+733.609L555.637+724.746L523.611+757.308L491.585+724.746Z" opacity="1" fill="#000000"/>
<path d="M830.522+548.82C830.789+592.286+866.963+627.431+911.156+627.159C955.35+626.888+991.089+591.301+990.822+547.835C990.555+504.368+954.381+469.223+910.188+469.495C865.994+469.767+830.255+505.353+830.522+548.82ZM842.852+548.744C842.626+511.839+872.74+481.854+910.262+481.623C947.784+481.392+978.265+511.005+978.492+547.91C978.718+584.816+948.604+614.801+911.082+615.031C873.56+615.262+843.079+585.649+842.852+548.744ZM891.024+580.475L899.94+589.137L936.709+552.526L940.921+548.141L936.656+543.809L899.439+507.652L890.63+516.424L923.388+548.249L891.024+580.475Z" opacity="1" fill="#000000"/>
<path d="M518.083+255.591C561.55+255.27+596.65+219.053+596.324+174.86C595.998+130.667+560.368+94.971+516.902+95.2913C473.436+95.6117+438.335+131.829+438.661+176.022C438.987+220.215+474.617+255.911+518.083+255.591ZM517.992+243.26C481.088+243.532+451.066+213.455+450.789+175.933C450.513+138.411+480.088+107.894+516.993+107.622C553.898+107.35+583.92+137.427+584.196+174.949C584.473+212.471+554.897+242.988+517.992+243.26ZM549.664+195.05L558.316+186.123L521.659+149.399L517.27+145.192L512.942+149.463L476.831+186.723L485.614+195.522L517.399+162.725L549.664+195.05Z" opacity="1" fill="#000000"/>
<path d="M220.299+550.514C219.937+507.048+183.686+471.983+139.493+472.351C95.3003+472.719+59.6385+508.383+60.0005+551.849C60.3624+595.315+96.6133+630.38+140.806+630.012C184.999+629.644+220.661+593.98+220.299+550.514ZM207.968+550.617C208.275+587.521+178.227+617.572+140.705+617.884C103.183+618.197+72.6384+588.651+72.3311+551.746C72.0238+514.842+102.072+484.791+139.594+484.478C177.116+484.166+207.661+513.712+207.968+550.617ZM159.727+518.991L150.792+510.348L114.103+547.04L109.901+551.433L114.176+555.756L151.471+591.832L160.261+583.041L127.434+551.287L159.727+518.991Z" opacity="1" fill="#000000"/>
</g>
</svg>
